<svg width="166" height="166" viewBox="0 0 166 166" fill="none" xmlns="http://www.w3.org/2000/svg">
<path d="M0 83C0 37.1604 37.1604 0 83 0H166V83C166 128.84 128.84 166 83 166V166C37.1604 166 0 128.84 0 83V83Z" fill="url(#paint0_linear_736_29560)"/>
<path d="M35.6204 84.7055L39.1076 74.4726H39.7416L43.2288 84.7055H35.6204ZM32.7673 96.9849H46.0819L47.667 101.078C49.252 105.171 51.7882 107.9 55.2753 107.9C59.3965 107.9 62.2496 104.83 62.2496 101.078C62.2496 99.0315 60.6645 94.9383 60.6645 94.9383L50.5201 66.2863C48.6814 61.1698 45.7649 58.1 39.4246 58.1C33.0843 58.1 30.2312 61.1698 28.3291 66.2863L18.1847 94.9383C18.1847 94.9383 16.5996 99.0315 16.5996 101.078C16.5996 104.83 19.4527 107.9 23.5739 107.9C27.0611 107.9 29.5972 105.171 31.1822 101.078L32.7673 96.9849Z" fill="white"/>
<path d="M126.921 84.7055L130.408 74.4726H131.042L134.53 84.7055H126.921ZM124.068 96.9849H137.383L138.968 101.078C140.553 105.171 143.089 107.9 146.576 107.9C150.697 107.9 153.55 104.83 153.55 101.078C153.55 99.0315 151.965 94.9383 151.965 94.9383L141.821 66.2863C139.982 61.1698 137.066 58.1 130.725 58.1C124.385 58.1 121.532 61.1698 119.63 66.2863L109.485 94.9383C109.485 94.9383 107.9 99.0315 107.9 101.078C107.9 104.83 110.754 107.9 114.875 107.9C118.362 107.9 120.898 105.171 122.483 101.078L124.068 96.9849Z" fill="white"/>
<path d="M107.9 79.4428C107.9 67.3485 99.3369 58.1 85.1742 58.1H73.6464C69.0353 58.1 66.4004 60.9457 66.4004 65.2143V100.786C66.4004 105.054 69.0353 107.9 73.6464 107.9H85.1742C99.3369 107.9 107.9 98.6514 107.9 86.5571V79.4428ZM85.1742 70.9057C89.7853 70.9057 93.079 74.4628 93.079 79.4428V86.5571C93.079 91.5371 89.7853 95.0943 85.1742 95.0943H80.8925V70.9057H85.1742Z" fill="white"/>
<defs>
<linearGradient id="paint0_linear_736_29560" x1="128.65" y1="1.65197e-06" x2="34.8066" y2="150.674" gradientUnits="userSpaceOnUse">
<stop stop-color="#FEB2B7"/>
<stop offset="0.4375" stop-color="#ED463E"/>
<stop offset="0.899202" stop-color="#011E41"/>
</linearGradient>
</defs>
</svg>
