<?xml version="1.0" encoding="UTF-8" standalone="no"?>
<svg
   xmlns:dc="http://purl.org/dc/elements/1.1/"
   xmlns:cc="http://creativecommons.org/ns#"
   xmlns:rdf="http://www.w3.org/1999/02/22-rdf-syntax-ns#"
   xmlns:svg="http://www.w3.org/2000/svg"
   xmlns="http://www.w3.org/2000/svg"
   xmlns:sodipodi="http://sodipodi.sourceforge.net/DTD/sodipodi-0.dtd"
   xmlns:inkscape="http://www.inkscape.org/namespaces/inkscape"
   inkscape:version="1.0 (4035a4fb49, 2020-05-01)"
   sodipodi:docname="earthquake-red.svg"
   id="svg4"
   version="1.1"
   viewBox="0 0 40 48">
  <metadata
     id="metadata10">
    <rdf:RDF>
      <cc:Work
         rdf:about="">
        <dc:format>image/svg+xml</dc:format>
        <dc:type
           rdf:resource="http://purl.org/dc/dcmitype/StillImage" />
      </cc:Work>
    </rdf:RDF>
  </metadata>
  <defs
     id="defs8" />
  <sodipodi:namedview
     inkscape:current-layer="svg4"
     inkscape:window-maximized="1"
     inkscape:window-y="-9"
     inkscape:window-x="-9"
     inkscape:cy="24"
     inkscape:cx="20"
     inkscape:zoom="18.791667"
     showgrid="false"
     id="namedview6"
     inkscape:window-height="1721"
     inkscape:window-width="3200"
     inkscape:pageshadow="2"
     inkscape:pageopacity="0"
     guidetolerance="10"
     gridtolerance="10"
     objecttolerance="10"
     borderopacity="1"
     bordercolor="#666666"
     pagecolor="#ffffff" />
  <path
     id="path2"
     style="fill:#eb445a;fill-opacity:1"
     data-name="Layer 2"
     d="M39.57 18.04L20.69.27a1.017 1.017 0 0 0-1.38 0L.43 18.04a1.31 1.31 0 0 0-.43.98V47a1.003 1.003 0 0 0 1 1h13.18l8.91-8.92-8.43-7.59a1.994 1.994 0 0 1-.66-1.51 2.015 2.015 0 0 1 .7-1.5l5.36-4.59-3.47-3.48a1.974 1.974 0 0 1 0-2.82l4-4a1.994 1.994 0 0 1 2.82 2.82L20.83 19l3.58 3.59a1.974 1.974 0 0 1 .59 1.49 2.013 2.013 0 0 1-.7 1.44l-5.27 4.52 8.31 7.47a1.995 1.995 0 0 1 .07 2.9L19.82 48H39a1.003 1.003 0 0 0 1-1V19.02a1.31 1.31 0 0 0-.43-.98z"
     fill="#418fde" />
</svg>
