<svg width="32" height="32" viewBox="0 0 32 32" fill="none" xmlns="http://www.w3.org/2000/svg">
<g><path d="M25.9391 25.6483L18.2024 18.3279C18.0701 18.1922 17.8943 18.1072 17.7057 18.088C17.5171 18.0687 17.3278 18.1163 17.1707 18.2225C16.8282 18.4643 16.4192 18.5942 15.9999 18.5942C15.5806 18.5942 15.1716 18.4643 14.8291 18.2225C14.672 18.1163 14.4827 18.0687 14.2941 18.088C14.1055 18.1072 13.9297 18.1922 13.7974 18.3279L6.06072 25.6488C6.03213 25.6776 6.01269 25.7142 6.00485 25.754C5.99701 25.7938 6.00112 25.8351 6.01666 25.8726C6.0322 25.9101 6.05848 25.9421 6.0922 25.9647C6.12591 25.9873 6.16555 25.9995 6.20614 25.9996H25.7936C25.8343 25.9996 25.8741 25.9876 25.908 25.965C25.9419 25.9424 25.9683 25.9103 25.9839 25.8727C25.9995 25.8351 26.0036 25.7937 25.9957 25.7538C25.9878 25.7138 25.9682 25.6772 25.9395 25.6483H25.9391ZM16.4166 16.2079C16.4166 16.3737 16.4824 16.5327 16.5996 16.6499C16.7168 16.7671 16.8758 16.8329 17.0416 16.8329C17.2073 16.8329 17.3663 16.7671 17.4835 16.6499C17.6007 16.5327 17.6666 16.3737 17.6666 16.2079L17.6657 12.8538C17.6489 12.5179 17.6985 12.182 17.8115 11.8652C17.9246 11.5485 18.0989 11.2571 18.3245 11.0078C18.5502 10.7584 18.8227 10.5559 19.1266 10.4119C19.4305 10.2679 19.7598 10.1851 20.0957 10.1683C20.6053 10.1428 21.1041 10.3208 21.4824 10.663C21.8608 11.0053 22.0877 11.4838 22.1132 11.9933C22.1225 12.1788 22.0952 12.3644 22.0328 12.5393C21.9705 12.7142 21.8742 12.8752 21.7496 13.0129C21.625 13.1507 21.4745 13.2625 21.3067 13.3421C21.1389 13.4217 20.9571 13.4674 20.7716 13.4767C20.6393 13.4843 20.5069 13.4655 20.382 13.4214C20.2571 13.3774 20.1422 13.3089 20.044 13.22C19.9458 13.1312 19.8662 13.0237 19.81 12.9038C19.7537 12.7839 19.7218 12.654 19.7161 12.5217C19.7058 12.3576 19.6313 12.2043 19.5087 12.0948C19.3861 11.9853 19.2253 11.9285 19.0611 11.9367C18.897 11.9449 18.7426 12.0175 18.6316 12.1387C18.5205 12.2599 18.4617 12.4199 18.4678 12.5842C18.4988 13.1813 18.7651 13.7418 19.2084 14.143C19.6517 14.5441 20.236 14.7533 20.8332 14.7246C21.1827 14.7072 21.5253 14.6211 21.8414 14.4713C22.1576 14.3215 22.4412 14.1108 22.6759 13.8514C22.9107 13.5919 23.092 13.2888 23.2096 12.9593C23.3271 12.6297 23.3786 12.2803 23.3611 11.9308C23.3403 11.5147 23.2377 11.1066 23.0592 10.7301C22.8807 10.3536 22.6297 10.0159 22.3207 9.73634C22.0117 9.45679 21.6506 9.24085 21.2581 9.10086C20.8656 8.96086 20.4494 8.89955 20.0332 8.92043C19.0293 8.97045 18.0858 9.41522 17.4083 10.1578C16.7309 10.9004 16.3744 11.8807 16.4166 12.885V16.2079ZM11.8999 10.9483C12.0639 10.954 12.2235 10.8948 12.3443 10.7837C12.4651 10.6726 12.5374 10.5185 12.5455 10.3545C12.5536 10.1906 12.4969 10.0301 12.3876 9.90765C12.2784 9.78518 12.1253 9.7106 11.9616 9.70001C11.69 9.68484 11.4354 9.56267 11.2537 9.36025C11.072 9.15784 10.9779 8.89167 10.992 8.62001C11.0007 8.4315 11.0465 8.24655 11.1267 8.07573C11.2069 7.90491 11.32 7.75156 11.4595 7.62446C11.5989 7.49735 11.7621 7.39897 11.9396 7.33493C12.1171 7.2709 12.3055 7.24247 12.4941 7.25126C12.7524 7.2666 13.0051 7.33279 13.2378 7.44604C13.4704 7.55929 13.6784 7.71737 13.8498 7.9112C14.0213 8.10504 14.1527 8.33081 14.2367 8.57558C14.3206 8.82034 14.3554 9.07927 14.3391 9.33751V16.2079C14.3391 16.3725 14.4044 16.5303 14.5208 16.6466C14.6371 16.763 14.7949 16.8283 14.9595 16.8283C15.124 16.8283 15.2818 16.763 15.3982 16.6466C15.5145 16.5303 15.5799 16.3725 15.5799 16.2079L15.5791 9.36876C15.623 8.52194 15.3296 7.69221 14.763 7.06133C14.1964 6.43045 13.4028 6.04986 12.5561 6.00293C12.2043 5.98646 11.8526 6.03951 11.5212 6.15902C11.1899 6.27854 10.8853 6.46219 10.625 6.69947C10.3646 6.93675 10.1536 7.22302 10.0039 7.54191C9.85429 7.86079 9.76895 8.20605 9.7528 8.55793C9.72156 9.15932 9.92994 9.74857 10.3323 10.1966C10.7347 10.6447 11.2982 10.915 11.8995 10.9483H11.8999Z" fill="#EB445A"/></g>
</svg>
