<svg width="32" height="32" viewBox="0 0 32 32" fill="none" xmlns="http://www.w3.org/2000/svg">
<g><path d="M15.5263 10.75C15.8753 10.75 16.21 10.6183 16.4567 10.3839C16.7035 10.1495 16.8421 9.83152 16.8421 9.5V8.25C16.8421 7.91848 16.7035 7.60054 16.4567 7.36612C16.21 7.1317 15.8753 7 15.5263 7C15.1773 7 14.8427 7.1317 14.5959 7.36612C14.3492 7.60054 14.2105 7.91848 14.2105 8.25V9.5C14.2105 9.83152 14.3492 10.1495 14.5959 10.3839C14.8427 10.6183 15.1773 10.75 15.5263 10.75ZM24.9561 24.9167H20.3684L24.5132 22.6667C24.8102 22.4994 25.0261 22.2279 25.1141 21.9107C25.2021 21.5935 25.1552 21.2561 24.9835 20.9715C24.8118 20.6869 24.5291 20.4779 24.1965 20.3896C23.864 20.3014 23.5082 20.3411 23.2061 20.5L19.1754 22.6875L25.8816 11.3625C26.0526 11.0741 26.096 10.7329 26.0022 10.4141C25.9084 10.0953 25.6852 9.82494 25.3816 9.6625C25.078 9.50005 24.7189 9.45884 24.3833 9.54792C24.0477 9.637 23.7631 9.84908 23.5921 10.1375L16.8421 21.5375V15.3333C16.8421 15.0018 16.7035 14.6839 16.4567 14.4494C16.21 14.215 15.8753 14.0833 15.5263 14.0833C15.1773 14.0833 14.8427 14.215 14.5959 14.4494C14.3492 14.6839 14.2105 15.0018 14.2105 15.3333V21.8292L10.0439 15.8917C9.84967 15.6178 9.54936 15.4281 9.20844 15.3638C8.86752 15.2995 8.51369 15.3659 8.22414 15.5486C7.93459 15.7312 7.73284 16.0153 7.66291 16.3387C7.59299 16.6621 7.66055 16.9987 7.85088 17.275L11.4298 22.375L9.62281 21.3458C9.32386 21.1757 8.96599 21.1253 8.62793 21.2057C8.28987 21.2862 7.99931 21.491 7.82018 21.775C7.64104 22.059 7.588 22.399 7.67272 22.7201C7.75744 23.0413 7.97298 23.3173 8.27193 23.4875L10.7807 24.9167H6.09649C5.80568 24.9167 5.52679 25.0264 5.32115 25.2218C5.11552 25.4171 5 25.6821 5 25.9583C5 26.2346 5.11552 26.4996 5.32115 26.6949C5.52679 26.8903 5.80568 27 6.09649 27H24.9561C25.2469 27 25.5258 26.8903 25.7315 26.6949C25.9371 26.4996 26.0526 26.2346 26.0526 25.9583C26.0526 25.6821 25.9371 25.4171 25.7315 25.2218C25.5258 25.0264 25.2469 24.9167 24.9561 24.9167ZM15.193 24.9167H12.4561C12.455 24.6185 12.5023 24.3219 12.5965 24.0375C12.7253 23.6559 12.9349 23.3035 13.2125 23.0018C13.4901 22.7001 13.8297 22.4556 14.2105 22.2833C14.2898 22.2416 14.3737 22.208 14.4605 22.1833C14.8008 22.0602 15.1622 21.998 15.5263 22C15.8513 21.999 16.1742 22.0482 16.4825 22.1458C16.6058 22.183 16.726 22.2289 16.8421 22.2833C17.2107 22.4475 17.5408 22.6803 17.8128 22.9681C18.0848 23.2558 18.2932 23.5926 18.4254 23.9583C18.5386 24.2664 18.5964 24.5904 18.5965 24.9167H15.193Z" fill="#EB445A"/></g>
</svg>
