<?xml version="1.0" encoding="UTF-8" standalone="no"?>
<svg
   xmlns:dc="http://purl.org/dc/elements/1.1/"
   xmlns:cc="http://creativecommons.org/ns#"
   xmlns:rdf="http://www.w3.org/1999/02/22-rdf-syntax-ns#"
   xmlns:svg="http://www.w3.org/2000/svg"
   xmlns="http://www.w3.org/2000/svg"
   xmlns:sodipodi="http://sodipodi.sourceforge.net/DTD/sodipodi-0.dtd"
   xmlns:inkscape="http://www.inkscape.org/namespaces/inkscape"
   inkscape:version="1.0 (4035a4fb49, 2020-05-01)"
   sodipodi:docname="fire.svg"
   id="svg4"
   version="1.1"
   viewBox="0 0 34 48">
  <metadata
     id="metadata10">
    <rdf:RDF>
      <cc:Work
         rdf:about="">
        <dc:format>image/svg+xml</dc:format>
        <dc:type
           rdf:resource="http://purl.org/dc/dcmitype/StillImage" />
      </cc:Work>
    </rdf:RDF>
  </metadata>
  <defs
     id="defs8" />
  <sodipodi:namedview
     inkscape:current-layer="svg4"
     inkscape:window-maximized="1"
     inkscape:window-y="-9"
     inkscape:window-x="-9"
     inkscape:cy="24"
     inkscape:cx="17"
     inkscape:zoom="18.791667"
     showgrid="false"
     id="namedview6"
     inkscape:window-height="1721"
     inkscape:window-width="3200"
     inkscape:pageshadow="2"
     inkscape:pageopacity="0"
     guidetolerance="10"
     gridtolerance="10"
     objecttolerance="10"
     borderopacity="1"
     bordercolor="#666666"
     pagecolor="#ffffff" />
  <path
     id="path2"
     style="fill:#011e41;fill-opacity:1"
     data-name="Layer 2"
     d="M17.43.21a.545.545 0 0 0-.86 0C13.93 3.53 0 22.46 0 30.97a17 17 0 1 0 34 0C34 22.46 20.07 3.53 17.43.21zM17 43a7.985 7.985 0 0 1-8-7.97c0-3.98 6.55-12.38 7.8-13.93a.254.254 0 0 1 .4 0c1.24 1.55 7.8 9.95 7.8 13.93A7.985 7.985 0 0 1 17 43z"
     fill="#418fde" />
</svg>
