<?xml version="1.0" encoding="UTF-8" standalone="no"?>
<svg
   xmlns:dc="http://purl.org/dc/elements/1.1/"
   xmlns:cc="http://creativecommons.org/ns#"
   xmlns:rdf="http://www.w3.org/1999/02/22-rdf-syntax-ns#"
   xmlns:svg="http://www.w3.org/2000/svg"
   xmlns="http://www.w3.org/2000/svg"
   xmlns:sodipodi="http://sodipodi.sourceforge.net/DTD/sodipodi-0.dtd"
   xmlns:inkscape="http://www.inkscape.org/namespaces/inkscape"
   inkscape:version="1.0 (4035a4fb49, 2020-05-01)"
   sodipodi:docname="heavy-rain-red.svg"
   id="svg6"
   version="1.1"
   viewBox="0 0 47.98 40">
  <metadata
     id="metadata12">
    <rdf:RDF>
      <cc:Work
         rdf:about="">
        <dc:format>image/svg+xml</dc:format>
        <dc:type
           rdf:resource="http://purl.org/dc/dcmitype/StillImage" />
      </cc:Work>
    </rdf:RDF>
  </metadata>
  <defs
     id="defs10" />
  <sodipodi:namedview
     inkscape:current-layer="svg6"
     inkscape:window-maximized="1"
     inkscape:window-y="-9"
     inkscape:window-x="-9"
     inkscape:cy="20"
     inkscape:cx="22.193991"
     inkscape:zoom="22.55"
     showgrid="false"
     id="namedview8"
     inkscape:window-height="1721"
     inkscape:window-width="3200"
     inkscape:pageshadow="2"
     inkscape:pageopacity="0"
     guidetolerance="10"
     gridtolerance="10"
     objecttolerance="10"
     borderopacity="1"
     bordercolor="#666666"
     pagecolor="#ffffff" />
  <g
     style="fill:#eb445a;fill-opacity:1"
     id="g4"
     data-name="Layer 2"
     fill="#418fde">
    <path
       id="path2"
       style="fill:#eb445a;fill-opacity:1"
       d="M11.229 31a1.767 1.767 0 0 0-1.25.518l-5.465 5.464a1.768 1.768 0 0 0 2.5 2.5l5.465-5.464A1.768 1.768 0 0 0 11.229 31zM24.236 31a1.767 1.767 0 0 0-1.25.518l-5.465 5.464a1.768 1.768 0 0 0 2.5 2.5l5.465-5.464A1.768 1.768 0 0 0 24.236 31zM37.236 31a1.767 1.767 0 0 0-1.25.518l-5.465 5.464a1.768 1.768 0 0 0 2.5 2.5l5.465-5.464A1.768 1.768 0 0 0 37.236 31zM38.98 9.01a8.734 8.734 0 0 0-3.16.58l-.01.005a11.49 11.49 0 0 0-22.823 1.756 5.977 5.977 0 0 0-7.91 6.69l-.007-.001a3.818 3.818 0 0 0-.59-.04 4.5 4.5 0 0 0 0 9h34.5a9.003 9.003 0 0 0 8.83-7.24 9.296 9.296 0 0 0 .17-1.76 8.992 8.992 0 0 0-9-8.99z" />
  </g>
</svg>
