<svg width="32" height="32" viewBox="0 0 32 32" fill="none" xmlns="http://www.w3.org/2000/svg">
<path d="M22.876 9.13088C22.3809 9.12915 21.8898 9.21929 21.4276 9.39673L21.423 9.39902C21.2066 8.10052 20.5118 6.93012 19.4755 6.11842C18.4391 5.30671 17.1363 4.91255 15.8238 5.01359C14.5113 5.11464 13.2842 5.70355 12.3843 6.66432C11.4844 7.62509 10.9769 8.88804 10.9619 10.2044C10.509 10.0409 10.021 9.99967 9.54717 10.0848C9.0733 10.17 8.63024 10.3786 8.26262 10.6895C7.895 11.0004 7.61582 11.4027 7.45319 11.8559C7.29056 12.309 7.25022 12.7971 7.33625 13.2708L7.33305 13.2699C7.24351 13.2568 7.1531 13.2506 7.06261 13.2515C6.51558 13.2515 5.99094 13.4688 5.60413 13.8557C5.21731 14.2425 5 14.7671 5 15.3141C5 15.8612 5.21731 16.3858 5.60413 16.7726C5.99094 17.1594 6.51558 17.3768 7.06261 17.3768H22.876C23.8303 17.3769 24.7551 17.0463 25.4931 16.4412C26.231 15.8362 26.7364 14.994 26.9233 14.0582C26.9748 13.7924 27.0009 13.5223 27.0012 13.2515C27.0011 12.71 26.8943 12.1739 26.6869 11.6737C26.4795 11.1735 26.1755 10.7191 25.7924 10.3364C25.4093 9.95376 24.9546 9.65033 24.4542 9.44347C23.9537 9.23662 23.4175 9.1304 22.876 9.13088ZM18.0632 21.9603H15.1788L16.8128 19.3454C16.8607 19.2688 16.893 19.1836 16.9079 19.0946C16.9228 19.0055 16.92 18.9144 16.8997 18.8264C16.8794 18.7384 16.842 18.6553 16.7896 18.5818C16.7371 18.5083 16.6707 18.4458 16.5942 18.398C16.5176 18.3501 16.4324 18.3178 16.3433 18.3029C16.2543 18.288 16.1632 18.2908 16.0752 18.3111C15.9872 18.3314 15.9041 18.3688 15.8306 18.4212C15.7571 18.4737 15.6946 18.54 15.6468 18.6166L13.355 22.2835C13.2899 22.3876 13.2539 22.5071 13.2507 22.6298C13.2475 22.7525 13.2771 22.8738 13.3366 22.9812C13.3961 23.0885 13.4833 23.178 13.589 23.2403C13.6948 23.3026 13.8153 23.3354 13.938 23.3354H16.8224L15.1884 25.9504C15.1405 26.0269 15.1082 26.1122 15.0933 26.2012C15.0784 26.2903 15.0812 26.3814 15.1015 26.4693C15.1218 26.5573 15.1592 26.6404 15.2117 26.714C15.2641 26.7875 15.3305 26.8499 15.407 26.8978C15.4836 26.9456 15.5688 26.9779 15.6579 26.9928C15.7469 27.0078 15.8381 27.005 15.926 26.9847C16.014 26.9644 16.0971 26.9269 16.1706 26.8745C16.2441 26.8221 16.3066 26.7557 16.3545 26.6791L18.6463 23.0123C18.7113 22.9082 18.7473 22.7886 18.7505 22.6659C18.7537 22.5432 18.7241 22.4219 18.6646 22.3146C18.6051 22.2072 18.5179 22.1178 18.4122 22.0555C18.3064 21.9932 18.186 21.9603 18.0632 21.9603Z" fill="#011E41"/>
</svg>
