<svg width="32" height="49" viewBox="0 0 32 49" fill="none" xmlns="http://www.w3.org/2000/svg">
<g><path d="M16 0.132809C7.16 0.132809 0 7.7538 0 17.1396C0 25.2219 11.83 42.8805 15.15 47.6737C15.2427 47.8148 15.3689 47.9306 15.5173 48.0107C15.6656 48.0909 15.8315 48.1328 16 48.1328C16.1685 48.1328 16.3344 48.0909 16.4827 48.0107C16.6311 47.9306 16.7573 47.8148 16.85 47.6737C20.17 42.8805 32 25.2219 32 17.1396C32 7.7538 24.84 0.132809 16 0.132809ZM16 24.0687C14.4177 24.0687 12.871 23.5982 11.5554 22.7168C10.2398 21.8353 9.21447 20.5824 8.60896 19.1166C8.00346 17.6507 7.84504 16.0377 8.15372 14.4816C8.4624 12.9255 9.22433 11.4961 10.3431 10.3742C11.462 9.25225 12.8874 8.48822 14.4393 8.17869C15.9911 7.86915 17.5997 8.02802 19.0615 8.63519C20.5233 9.24236 21.7727 10.2706 22.6518 11.5898C23.5308 12.909 24 14.46 24 16.0466C24.0003 17.1002 23.7935 18.1435 23.3916 19.1169C22.9896 20.0903 22.4004 20.9747 21.6574 21.7197C20.9145 22.4647 20.0325 23.0556 19.0618 23.4586C18.0911 23.8617 17.0506 24.069 16 24.0687Z" fill="#E5E5E5"/></g>
</svg>
