<svg width="32" height="32" viewBox="0 0 32 32" fill="none" xmlns="http://www.w3.org/2000/svg">
<path d="M26.8292 16.1169L26.8117 16.0877C26.6396 15.8054 26.3573 15.5992 26.0264 15.5141C25.6955 15.429 25.3427 15.472 25.0449 15.6335L23.0156 16.7503C23.1865 15.4422 22.9137 14.1163 22.2371 12.9665C22.2258 12.9406 22.2126 12.9156 22.1978 12.8914L22.1847 12.8748L18.3929 6.61552C18.3079 6.47542 18.1948 6.35265 18.06 6.25421C17.9252 6.15577 17.7714 6.0836 17.6073 6.0418C17.4432 6.00001 17.2721 5.98942 17.1038 6.01064C16.9354 6.03185 16.7731 6.08446 16.6261 6.16546L16.5911 6.18212C16.2957 6.3471 16.0805 6.61634 15.9921 6.9315C15.9037 7.24665 15.9492 7.58231 16.1188 7.8657L17.2865 9.79515C15.8845 9.63135 14.4647 9.90632 13.2411 10.5786L13.1929 10.6036L6.64597 14.2083C6.49894 14.2893 6.37009 14.3971 6.26678 14.5255C6.16348 14.654 6.08773 14.8005 6.04387 14.9569C6.00001 15.1132 5.9889 15.2762 6.01116 15.4367C6.03343 15.5971 6.08864 15.7518 6.17364 15.8919L6.19113 15.921C6.27613 16.0611 6.38926 16.1839 6.52405 16.2824C6.65885 16.3808 6.81267 16.453 6.97674 16.4948C7.1408 16.5366 7.3119 16.5471 7.48027 16.5259C7.64863 16.5047 7.81096 16.4521 7.95799 16.3711L9.99162 15.2543C9.82247 16.5805 10.1062 17.9234 10.8007 19.084C10.8032 19.0944 10.8076 19.1043 10.8138 19.1132L10.8226 19.1257L14.6143 25.3849C14.7862 25.6676 15.0688 25.8738 15.4 25.9582C15.7313 26.0425 16.0841 25.9982 16.3812 25.835L16.4161 25.8183C16.7123 25.6541 16.9282 25.3848 17.0167 25.0694C17.1052 24.7539 17.0591 24.4179 16.8885 24.1348L15.7208 22.2053C17.0655 22.3653 18.429 22.1174 19.6175 21.4969C19.6702 21.4752 19.7214 21.4501 19.7705 21.4219L19.7837 21.4135L26.3569 17.8005C26.6522 17.6355 26.8674 17.3663 26.9559 17.0511C27.0443 16.736 26.9988 16.4003 26.8292 16.1169ZM13.0967 17.8755C13.0924 17.8713 13.0924 17.8672 13.088 17.863C12.5738 17.0072 12.4342 15.9928 12.6994 15.0396C12.9647 14.0864 13.6134 13.2712 14.505 12.7706C14.5137 12.7664 14.5268 12.7581 14.5356 12.7539C14.5443 12.7498 14.5487 12.7456 14.5574 12.7414C15.4559 12.2539 16.5195 12.1227 17.5186 12.3761C18.5177 12.6295 19.3722 13.2472 19.8974 14.0958C19.9017 14.1041 19.9105 14.1166 19.9149 14.125C19.9192 14.1333 19.9236 14.1375 19.928 14.1458C20.4411 15.0077 20.576 16.0278 20.3032 16.984C20.0304 17.9403 19.3721 18.755 18.4716 19.2507C18.4673 19.2549 18.4629 19.2549 18.4585 19.259C17.5545 19.751 16.4827 19.8816 15.4778 19.6223C14.4729 19.363 13.6167 18.7349 13.0967 17.8755Z" fill="#011E41"/>
</svg>
