<svg xmlns="http://www.w3.org/2000/svg" width="16" height="16" fill="url(#populationDensity)" viewBox="0 0 16 16">
  <defs>
    <linearGradient id="populationDensity" x1="0%" y1="0%" x2="100%" y2="100%">
      <stop offset="0%" style="stop-color:#ff0000;stop-opacity:1" />
      <stop offset="25%" style="stop-color:#ffa500;stop-opacity:1" />
      <stop offset="50%" style="stop-color:#ffd700;stop-opacity:1" />
      <stop offset="75%" style="stop-color:#008000;stop-opacity:1" />
      <stop offset="100%" style="stop-color:#0000ff;stop-opacity:1" />
    </linearGradient>
  </defs>
  <path d="M7 14s-1 0-1-1 1-4 5-4 5 3 5 4-1 1-1 1zm4-6a3 3 0 1 0 0-6 3 3 0 0 0 0 6m-5.784 6A2.24 2.24 0 0 1 5 13c0-1.355.68-2.75 1.936-3.72A6.3 6.3 0 0 0 5 9c-4 0-5 3-5 4s1 1 1 1zM4.5 8a2.5 2.5 0 1 0 0-5 2.5 2.5 0 0 0 0 5"/>
</svg>
